name C:\Users\antoi\Documents\MyRepositories\upper-imu-dc\Results\main_tracking\Case_70\ABD01_angularVelocities_groundFrame.mot
datacolumns 4
datarows 94
range 4.56000000 5.49000000
endheader 
time	radius_imu_x	radius_imu_y	radius_imu_z	
          4.56000000	         -0.86633623	         -0.11419336	          0.01456910	
          4.57000000	         -0.86569703	         -0.11186532	          0.02617367	
          4.58000000	         -0.86441790	         -0.10911011	          0.03479983	
          4.59000000	         -0.86252050	         -0.10601727	          0.04041778	
          4.60000000	         -0.86004363	         -0.10269400	          0.04314175	
          4.61000000	         -0.85704553	         -0.09925160	          0.04322490	
          4.62000000	         -0.85359221	         -0.09580002	          0.04105491	
          4.63000000	         -0.84975368	         -0.09243724	          0.03714238	
          4.64000000	         -0.84560308	         -0.08923837	          0.03209759	
          4.65000000	         -0.84121615	         -0.08624730	          0.02659336	
          4.66000000	         -0.83666968	         -0.08347218	          0.02131419	
          4.67000000	         -0.83203864	         -0.08088462	          0.01689404	
          4.68000000	         -0.82739222	         -0.07842313	          0.01384921	
          4.69000000	         -0.82278871	         -0.07600203	          0.01252027	
          4.70000000	         -0.81827116	         -0.07352465	          0.01304101	
          4.71000000	         -0.81386610	         -0.07089551	          0.01534439	
          4.72000000	         -0.80958580	         -0.06802762	          0.01919921	
          4.73000000	         -0.80543172	         -0.06484544	          0.02425864	
          4.74000000	         -0.80139756	         -0.06128635	          0.03010420	
          4.75000000	         -0.79746965	         -0.05730548	          0.03627928	
          4.76000000	         -0.79362503	         -0.05288309	          0.04231483	
          4.77000000	         -0.78983156	         -0.04802648	          0.04775148	
          4.78000000	         -0.78605010	         -0.04276805	          0.05216328	
          4.79000000	         -0.78223766	         -0.03716441	          0.05518415	
          4.80000000	         -0.77835254	         -0.03129365	          0.05653276	
          4.81000000	         -0.77436091	         -0.02524975	          0.05603209	
          4.82000000	         -0.77024294	         -0.01913509	          0.05361969	
          4.83000000	         -0.76599675	         -0.01305303	          0.04934640	
          4.84000000	         -0.76164204	         -0.00709929	          0.04336234	
          4.85000000	         -0.75722064	         -0.00135825	          0.03589485	
          4.86000000	         -0.75279280	          0.00409396	          0.02722307	
          4.87000000	         -0.74843836	          0.00919354	          0.01764942	
          4.88000000	         -0.74425477	          0.01389427	          0.00747512	
          4.89000000	         -0.74034846	          0.01816659	         -0.00301380	
          4.90000000	         -0.73682445	          0.02199667	         -0.01355037	
          4.91000000	         -0.73377251	          0.02538367	         -0.02388168	
          4.92000000	         -0.73126132	          0.02833736	         -0.03376365	
          4.93000000	         -0.72932075	          0.03088543	         -0.04296423	
          4.94000000	         -0.72792512	          0.03307270	         -0.05127430	
          4.95000000	         -0.72700332	          0.03495712	         -0.05852545	
          4.96000000	         -0.72645201	          0.03661514	         -0.06460870	
          4.97000000	         -0.72613040	          0.03811866	         -0.06947589	
          4.98000000	         -0.72587832	          0.03953376	         -0.07314288	
          4.99000000	         -0.72554585	          0.04092883	         -0.07567953	
          5.00000000	         -0.72499260	          0.04236295	         -0.07717921	
          5.01000000	         -0.72410650	          0.04389222	         -0.07773635	
          5.02000000	         -0.72282051	          0.04557557	         -0.07742097	
          5.03000000	         -0.72110701	          0.04747578	         -0.07625530	
          5.04000000	         -0.71895978	          0.04964982	         -0.07419355	
          5.05000000	         -0.71640974	          0.05216890	         -0.07112916	
          5.06000000	         -0.71351929	          0.05512092	         -0.06690639	
          5.07000000	         -0.71034955	          0.05858749	         -0.06133987	
          5.08000000	         -0.70695777	          0.06264260	         -0.05425436	
          5.09000000	         -0.70339122	          0.06734596	         -0.04552215	
          5.10000000	         -0.69968358	          0.07273613	         -0.03508863	
          5.11000000	         -0.69584879	          0.07881981	         -0.02297871	
          5.12000000	         -0.69188716	          0.08558040	         -0.00929975	
          5.13000000	         -0.68779359	          0.09298625	          0.00576317	
          5.14000000	         -0.68355507	          0.10098443	          0.02195944	
          5.15000000	         -0.67915191	          0.10950138	          0.03898323	
          5.16000000	         -0.67456025	          0.11844530	          0.05648655	
          5.17000000	         -0.66975689	          0.12771125	          0.07409741	
          5.18000000	         -0.66472711	          0.13718617	          0.09144532	
          5.19000000	         -0.65947137	          0.14675260	          0.10819296	
          5.20000000	         -0.65401037	          0.15629438	          0.12406683	
          5.21000000	         -0.64838872	          0.16570157	          0.13888098	
          5.22000000	         -0.64267472	          0.17488163	          0.15254280	
          5.23000000	         -0.63695537	          0.18375313	          0.16504895	
          5.24000000	         -0.63132424	          0.19223545	          0.17646551	
          5.25000000	         -0.62590778	          0.20027812	          0.18687491	
          5.26000000	         -0.62082963	          0.20783192	          0.19635260	
          5.27000000	         -0.61616930	          0.21481772	          0.20494824	
          5.28000000	         -0.61198680	          0.22114538	          0.21265734	
          5.29000000	         -0.60832436	          0.22671664	          0.21941448	
          5.30000000	         -0.60520480	          0.23142735	          0.22509832	
          5.31000000	         -0.60263234	          0.23517191	          0.22954319	
          5.32000000	         -0.60059389	          0.23784852	          0.23255549	
          5.33000000	         -0.59905708	          0.23936453	          0.23393471	
          5.34000000	         -0.59796834	          0.23963912	          0.23349949	
          5.35000000	         -0.59726142	          0.23861710	          0.23110868	
          5.36000000	         -0.59686206	          0.23628063	          0.22668097	
          5.37000000	         -0.59668868	          0.23265245	          0.22021340	
          5.38000000	         -0.59665874	          0.22780346	          0.21179071	
          5.39000000	         -0.59669430	          0.22185506	          0.20158732	
          5.40000000	         -0.59672800	          0.21497859	          0.18985721	
          5.41000000	         -0.59670566	          0.20738439	          0.17691452	
          5.42000000	         -0.59658784	          0.19931563	          0.16309977	
          5.43000000	         -0.59635289	          0.19102691	          0.14874823	
          5.44000000	         -0.59599744	          0.18276653	          0.13415889	
          5.45000000	         -0.59553238	          0.17476897	          0.11956686	
          5.46000000	         -0.59497845	          0.16723696	          0.10513602	
          5.47000000	         -0.59436215	          0.16033361	          0.09096164	
          5.48000000	         -0.59371422	          0.15418020	          0.07708351	
          5.49000000	         -0.59306876	          0.14886080	          0.06350508	
